<?xml version="1.0" encoding="utf-8" standalone="no"?>
<!DOCTYPE svg PUBLIC "-//W3C//DTD SVG 1.1//EN"
  "http://www.w3.org/Graphics/SVG/1.1/DTD/svg11.dtd">
<svg xmlns:xlink="http://www.w3.org/1999/xlink" width="460.8pt" height="345.6pt" viewBox="0 0 460.8 345.6" xmlns="http://www.w3.org/2000/svg" version="1.1">
 <metadata>
  <rdf:RDF xmlns:dc="http://purl.org/dc/elements/1.1/" xmlns:cc="http://creativecommons.org/ns#" xmlns:rdf="http://www.w3.org/1999/02/22-rdf-syntax-ns#">
   <cc:Work>
    <dc:type rdf:resource="http://purl.org/dc/dcmitype/StillImage"/>
    <dc:date>2023-10-10T19:50:07.343408</dc:date>
    <dc:format>image/svg+xml</dc:format>
    <dc:creator>
     <cc:Agent>
      <dc:title>Matplotlib v3.7.1, https://matplotlib.org/</dc:title>
     </cc:Agent>
    </dc:creator>
   </cc:Work>
  </rdf:RDF>
 </metadata>
 <defs>
  <style type="text/css">*{stroke-linejoin: round; stroke-linecap: butt}</style>
 </defs>
 <g id="figure_1">
  <g id="patch_1">
   <path d="M 0 345.6 
L 460.8 345.6 
L 460.8 0 
L 0 0 
z
" style="fill: #ffffff"/>
  </g>
  <g id="axes_1">
   <g id="LineCollection_1">
    <path d="M 39.986777 252.138843 
L 82.300826 252.138843 
" clip-path="url(#pa0b3379db2)" style="fill: none; stroke: #000000; stroke-width: 2"/>
    <path d="M 39.986777 252.138843 
L 39.986777 220.403306 
" clip-path="url(#pa0b3379db2)" style="fill: none; stroke: #000000; stroke-width: 2"/>
    <path d="M 39.986777 188.667769 
L 82.300826 188.667769 
" clip-path="url(#pa0b3379db2)" style="fill: none; stroke: #000000; stroke-width: 2"/>
    <path d="M 39.986777 188.667769 
L 39.986777 156.932231 
" clip-path="url(#pa0b3379db2)" style="fill: none; stroke: #000000; stroke-width: 2"/>
    <path d="M 39.986777 156.932231 
L 82.300826 156.932231 
" clip-path="url(#pa0b3379db2)" style="fill: none; stroke: #000000; stroke-width: 2"/>
    <path d="M 39.986777 93.461157 
L 39.986777 61.72562 
" clip-path="url(#pa0b3379db2)" style="fill: none; stroke: #000000; stroke-width: 2"/>
    <path d="M 39.986777 93.461157 
L 82.300826 93.461157 
" clip-path="url(#pa0b3379db2)" style="fill: none; stroke: #000000; stroke-width: 2"/>
    <path d="M 39.986777 61.72562 
L 82.300826 61.72562 
" clip-path="url(#pa0b3379db2)" style="fill: none; stroke: #000000; stroke-width: 2"/>
    <path d="M 39.986777 61.72562 
L 39.986777 29.990083 
" clip-path="url(#pa0b3379db2)" style="fill: none; stroke: #000000; stroke-width: 2"/>
    <path d="M 39.986777 29.990083 
L 82.300826 29.990083 
" clip-path="url(#pa0b3379db2)" style="fill: none; stroke: #000000; stroke-width: 2"/>
    <path d="M 82.300826 315.609917 
L 82.300826 283.87438 
" clip-path="url(#pa0b3379db2)" style="fill: none; stroke: #000000; stroke-width: 2"/>
    <path d="M 82.300826 283.87438 
L 82.300826 252.138843 
" clip-path="url(#pa0b3379db2)" style="fill: none; stroke: #000000; stroke-width: 2"/>
    <path d="M 82.300826 252.138843 
L 82.300826 220.403306 
" clip-path="url(#pa0b3379db2)" style="fill: none; stroke: #000000; stroke-width: 2"/>
    <path d="M 82.300826 188.667769 
L 82.300826 156.932231 
" clip-path="url(#pa0b3379db2)" style="fill: none; stroke: #000000; stroke-width: 2"/>
    <path d="M 82.300826 156.932231 
L 124.614876 156.932231 
" clip-path="url(#pa0b3379db2)" style="fill: none; stroke: #000000; stroke-width: 2"/>
    <path d="M 82.300826 93.461157 
L 124.614876 93.461157 
" clip-path="url(#pa0b3379db2)" style="fill: none; stroke: #000000; stroke-width: 2"/>
    <path d="M 82.300826 61.72562 
L 82.300826 29.990083 
" clip-path="url(#pa0b3379db2)" style="fill: none; stroke: #000000; stroke-width: 2"/>
    <path d="M 82.300826 61.72562 
L 124.614876 61.72562 
" clip-path="url(#pa0b3379db2)" style="fill: none; stroke: #000000; stroke-width: 2"/>
    <path d="M 124.614876 252.138843 
L 124.614876 220.403306 
" clip-path="url(#pa0b3379db2)" style="fill: none; stroke: #000000; stroke-width: 2"/>
    <path d="M 124.614876 252.138843 
L 166.928926 252.138843 
" clip-path="url(#pa0b3379db2)" style="fill: none; stroke: #000000; stroke-width: 2"/>
    <path d="M 124.614876 220.403306 
L 124.614876 188.667769 
" clip-path="url(#pa0b3379db2)" style="fill: none; stroke: #000000; stroke-width: 2"/>
    <path d="M 124.614876 188.667769 
L 166.928926 188.667769 
" clip-path="url(#pa0b3379db2)" style="fill: none; stroke: #000000; stroke-width: 2"/>
    <path d="M 124.614876 125.196694 
L 166.928926 125.196694 
" clip-path="url(#pa0b3379db2)" style="fill: none; stroke: #000000; stroke-width: 2"/>
    <path d="M 124.614876 29.990083 
L 166.928926 29.990083 
" clip-path="url(#pa0b3379db2)" style="fill: none; stroke: #000000; stroke-width: 2"/>
    <path d="M 166.928926 283.87438 
L 209.242975 283.87438 
" clip-path="url(#pa0b3379db2)" style="fill: none; stroke: #000000; stroke-width: 2"/>
    <path d="M 166.928926 252.138843 
L 166.928926 220.403306 
" clip-path="url(#pa0b3379db2)" style="fill: none; stroke: #000000; stroke-width: 2"/>
    <path d="M 166.928926 220.403306 
L 166.928926 188.667769 
" clip-path="url(#pa0b3379db2)" style="fill: none; stroke: #000000; stroke-width: 2"/>
    <path d="M 166.928926 156.932231 
L 209.242975 156.932231 
" clip-path="url(#pa0b3379db2)" style="fill: none; stroke: #000000; stroke-width: 2"/>
    <path d="M 166.928926 93.461157 
L 166.928926 61.72562 
" clip-path="url(#pa0b3379db2)" style="fill: none; stroke: #000000; stroke-width: 2"/>
    <path d="M 209.242975 315.609917 
L 209.242975 283.87438 
" clip-path="url(#pa0b3379db2)" style="fill: none; stroke: #000000; stroke-width: 2"/>
    <path d="M 209.242975 283.87438 
L 251.557025 283.87438 
" clip-path="url(#pa0b3379db2)" style="fill: none; stroke: #000000; stroke-width: 2"/>
    <path d="M 209.242975 283.87438 
L 209.242975 252.138843 
" clip-path="url(#pa0b3379db2)" style="fill: none; stroke: #000000; stroke-width: 2"/>
    <path d="M 209.242975 220.403306 
L 209.242975 188.667769 
" clip-path="url(#pa0b3379db2)" style="fill: none; stroke: #000000; stroke-width: 2"/>
    <path d="M 209.242975 188.667769 
L 251.557025 188.667769 
" clip-path="url(#pa0b3379db2)" style="fill: none; stroke: #000000; stroke-width: 2"/>
    <path d="M 209.242975 188.667769 
L 209.242975 156.932231 
" clip-path="url(#pa0b3379db2)" style="fill: none; stroke: #000000; stroke-width: 2"/>
    <path d="M 209.242975 156.932231 
L 251.557025 156.932231 
" clip-path="url(#pa0b3379db2)" style="fill: none; stroke: #000000; stroke-width: 2"/>
    <path d="M 209.242975 61.72562 
L 209.242975 29.990083 
" clip-path="url(#pa0b3379db2)" style="fill: none; stroke: #000000; stroke-width: 2"/>
    <path d="M 209.242975 61.72562 
L 251.557025 61.72562 
" clip-path="url(#pa0b3379db2)" style="fill: none; stroke: #000000; stroke-width: 2"/>
    <path d="M 251.557025 315.609917 
L 293.871074 315.609917 
" clip-path="url(#pa0b3379db2)" style="fill: none; stroke: #000000; stroke-width: 2"/>
    <path d="M 251.557025 252.138843 
L 251.557025 220.403306 
" clip-path="url(#pa0b3379db2)" style="fill: none; stroke: #000000; stroke-width: 2"/>
    <path d="M 251.557025 156.932231 
L 293.871074 156.932231 
" clip-path="url(#pa0b3379db2)" style="fill: none; stroke: #000000; stroke-width: 2"/>
    <path d="M 251.557025 125.196694 
L 293.871074 125.196694 
" clip-path="url(#pa0b3379db2)" style="fill: none; stroke: #000000; stroke-width: 2"/>
    <path d="M 251.557025 93.461157 
L 251.557025 61.72562 
" clip-path="url(#pa0b3379db2)" style="fill: none; stroke: #000000; stroke-width: 2"/>
    <path d="M 251.557025 29.990083 
L 293.871074 29.990083 
" clip-path="url(#pa0b3379db2)" style="fill: none; stroke: #000000; stroke-width: 2"/>
    <path d="M 293.871074 315.609917 
L 293.871074 283.87438 
" clip-path="url(#pa0b3379db2)" style="fill: none; stroke: #000000; stroke-width: 2"/>
    <path d="M 293.871074 283.87438 
L 293.871074 252.138843 
" clip-path="url(#pa0b3379db2)" style="fill: none; stroke: #000000; stroke-width: 2"/>
    <path d="M 293.871074 188.667769 
L 293.871074 156.932231 
" clip-path="url(#pa0b3379db2)" style="fill: none; stroke: #000000; stroke-width: 2"/>
    <path d="M 293.871074 156.932231 
L 293.871074 125.196694 
" clip-path="url(#pa0b3379db2)" style="fill: none; stroke: #000000; stroke-width: 2"/>
    <path d="M 293.871074 125.196694 
L 293.871074 93.461157 
" clip-path="url(#pa0b3379db2)" style="fill: none; stroke: #000000; stroke-width: 2"/>
    <path d="M 293.871074 93.461157 
L 293.871074 61.72562 
" clip-path="url(#pa0b3379db2)" style="fill: none; stroke: #000000; stroke-width: 2"/>
    <path d="M 293.871074 29.990083 
L 336.185124 29.990083 
" clip-path="url(#pa0b3379db2)" style="fill: none; stroke: #000000; stroke-width: 2"/>
    <path d="M 336.185124 315.609917 
L 378.499174 315.609917 
" clip-path="url(#pa0b3379db2)" style="fill: none; stroke: #000000; stroke-width: 2"/>
    <path d="M 336.185124 315.609917 
L 336.185124 283.87438 
" clip-path="url(#pa0b3379db2)" style="fill: none; stroke: #000000; stroke-width: 2"/>
    <path d="M 336.185124 283.87438 
L 336.185124 252.138843 
" clip-path="url(#pa0b3379db2)" style="fill: none; stroke: #000000; stroke-width: 2"/>
    <path d="M 336.185124 252.138843 
L 336.185124 220.403306 
" clip-path="url(#pa0b3379db2)" style="fill: none; stroke: #000000; stroke-width: 2"/>
    <path d="M 336.185124 220.403306 
L 336.185124 188.667769 
" clip-path="url(#pa0b3379db2)" style="fill: none; stroke: #000000; stroke-width: 2"/>
    <path d="M 336.185124 220.403306 
L 378.499174 220.403306 
" clip-path="url(#pa0b3379db2)" style="fill: none; stroke: #000000; stroke-width: 2"/>
    <path d="M 336.185124 188.667769 
L 336.185124 156.932231 
" clip-path="url(#pa0b3379db2)" style="fill: none; stroke: #000000; stroke-width: 2"/>
    <path d="M 336.185124 188.667769 
L 378.499174 188.667769 
" clip-path="url(#pa0b3379db2)" style="fill: none; stroke: #000000; stroke-width: 2"/>
    <path d="M 336.185124 125.196694 
L 378.499174 125.196694 
" clip-path="url(#pa0b3379db2)" style="fill: none; stroke: #000000; stroke-width: 2"/>
    <path d="M 336.185124 93.461157 
L 378.499174 93.461157 
" clip-path="url(#pa0b3379db2)" style="fill: none; stroke: #000000; stroke-width: 2"/>
    <path d="M 336.185124 93.461157 
L 336.185124 61.72562 
" clip-path="url(#pa0b3379db2)" style="fill: none; stroke: #000000; stroke-width: 2"/>
    <path d="M 336.185124 61.72562 
L 378.499174 61.72562 
" clip-path="url(#pa0b3379db2)" style="fill: none; stroke: #000000; stroke-width: 2"/>
    <path d="M 378.499174 252.138843 
L 420.813223 252.138843 
" clip-path="url(#pa0b3379db2)" style="fill: none; stroke: #000000; stroke-width: 2"/>
    <path d="M 378.499174 220.403306 
L 378.499174 188.667769 
" clip-path="url(#pa0b3379db2)" style="fill: none; stroke: #000000; stroke-width: 2"/>
    <path d="M 378.499174 188.667769 
L 420.813223 188.667769 
" clip-path="url(#pa0b3379db2)" style="fill: none; stroke: #000000; stroke-width: 2"/>
    <path d="M 378.499174 156.932231 
L 420.813223 156.932231 
" clip-path="url(#pa0b3379db2)" style="fill: none; stroke: #000000; stroke-width: 2"/>
    <path d="M 378.499174 125.196694 
L 420.813223 125.196694 
" clip-path="url(#pa0b3379db2)" style="fill: none; stroke: #000000; stroke-width: 2"/>
    <path d="M 378.499174 93.461157 
L 378.499174 61.72562 
" clip-path="url(#pa0b3379db2)" style="fill: none; stroke: #000000; stroke-width: 2"/>
    <path d="M 378.499174 61.72562 
L 420.813223 61.72562 
" clip-path="url(#pa0b3379db2)" style="fill: none; stroke: #000000; stroke-width: 2"/>
    <path d="M 378.499174 29.990083 
L 420.813223 29.990083 
" clip-path="url(#pa0b3379db2)" style="fill: none; stroke: #000000; stroke-width: 2"/>
    <path d="M 420.813223 188.667769 
L 420.813223 156.932231 
" clip-path="url(#pa0b3379db2)" style="fill: none; stroke: #000000; stroke-width: 2"/>
   </g>
   <g id="PathCollection_1">
    <defs>
     <path id="m74524c438a" d="M 0 5 
C 1.326016 5 2.597899 4.473168 3.535534 3.535534 
C 4.473168 2.597899 5 1.326016 5 0 
C 5 -1.326016 4.473168 -2.597899 3.535534 -3.535534 
C 2.597899 -4.473168 1.326016 -5 0 -5 
C -1.326016 -5 -2.597899 -4.473168 -3.535534 -3.535534 
C -4.473168 -2.597899 -5 -1.326016 -5 0 
C -5 1.326016 -4.473168 2.597899 -3.535534 3.535534 
C -2.597899 4.473168 -1.326016 5 0 5 
z
" style="stroke: #1f78b4"/>
    </defs>
    <g clip-path="url(#pa0b3379db2)">
     <use xlink:href="#m74524c438a" x="39.986777" y="315.609917" style="fill: #1f78b4; stroke: #1f78b4"/>
     <use xlink:href="#m74524c438a" x="39.986777" y="283.87438" style="fill: #1f78b4; stroke: #1f78b4"/>
     <use xlink:href="#m74524c438a" x="39.986777" y="252.138843" style="fill: #1f78b4; stroke: #1f78b4"/>
     <use xlink:href="#m74524c438a" x="39.986777" y="220.403306" style="fill: #1f78b4; stroke: #1f78b4"/>
     <use xlink:href="#m74524c438a" x="39.986777" y="188.667769" style="fill: #1f78b4; stroke: #1f78b4"/>
     <use xlink:href="#m74524c438a" x="39.986777" y="156.932231" style="fill: #1f78b4; stroke: #1f78b4"/>
     <use xlink:href="#m74524c438a" x="39.986777" y="125.196694" style="fill: #1f78b4; stroke: #1f78b4"/>
     <use xlink:href="#m74524c438a" x="39.986777" y="93.461157" style="fill: #1f78b4; stroke: #1f78b4"/>
     <use xlink:href="#m74524c438a" x="39.986777" y="61.72562" style="fill: #1f78b4; stroke: #1f78b4"/>
     <use xlink:href="#m74524c438a" x="39.986777" y="29.990083" style="fill: #1f78b4; stroke: #1f78b4"/>
     <use xlink:href="#m74524c438a" x="82.300826" y="315.609917" style="fill: #1f78b4; stroke: #1f78b4"/>
     <use xlink:href="#m74524c438a" x="82.300826" y="283.87438" style="fill: #1f78b4; stroke: #1f78b4"/>
     <use xlink:href="#m74524c438a" x="82.300826" y="252.138843" style="fill: #1f78b4; stroke: #1f78b4"/>
     <use xlink:href="#m74524c438a" x="82.300826" y="220.403306" style="fill: #1f78b4; stroke: #1f78b4"/>
     <use xlink:href="#m74524c438a" x="82.300826" y="188.667769" style="fill: #1f78b4; stroke: #1f78b4"/>
     <use xlink:href="#m74524c438a" x="82.300826" y="156.932231" style="fill: #1f78b4; stroke: #1f78b4"/>
     <use xlink:href="#m74524c438a" x="82.300826" y="125.196694" style="fill: #1f78b4; stroke: #1f78b4"/>
     <use xlink:href="#m74524c438a" x="82.300826" y="93.461157" style="fill: #1f78b4; stroke: #1f78b4"/>
     <use xlink:href="#m74524c438a" x="82.300826" y="61.72562" style="fill: #1f78b4; stroke: #1f78b4"/>
     <use xlink:href="#m74524c438a" x="82.300826" y="29.990083" style="fill: #1f78b4; stroke: #1f78b4"/>
     <use xlink:href="#m74524c438a" x="124.614876" y="315.609917" style="fill: #1f78b4; stroke: #1f78b4"/>
     <use xlink:href="#m74524c438a" x="124.614876" y="283.87438" style="fill: #1f78b4; stroke: #1f78b4"/>
     <use xlink:href="#m74524c438a" x="124.614876" y="252.138843" style="fill: #1f78b4; stroke: #1f78b4"/>
     <use xlink:href="#m74524c438a" x="124.614876" y="220.403306" style="fill: #1f78b4; stroke: #1f78b4"/>
     <use xlink:href="#m74524c438a" x="124.614876" y="188.667769" style="fill: #1f78b4; stroke: #1f78b4"/>
     <use xlink:href="#m74524c438a" x="124.614876" y="156.932231" style="fill: #1f78b4; stroke: #1f78b4"/>
     <use xlink:href="#m74524c438a" x="124.614876" y="125.196694" style="fill: #1f78b4; stroke: #1f78b4"/>
     <use xlink:href="#m74524c438a" x="124.614876" y="93.461157" style="fill: #1f78b4; stroke: #1f78b4"/>
     <use xlink:href="#m74524c438a" x="124.614876" y="61.72562" style="fill: #1f78b4; stroke: #1f78b4"/>
     <use xlink:href="#m74524c438a" x="124.614876" y="29.990083" style="fill: #1f78b4; stroke: #1f78b4"/>
     <use xlink:href="#m74524c438a" x="166.928926" y="315.609917" style="fill: #1f78b4; stroke: #1f78b4"/>
     <use xlink:href="#m74524c438a" x="166.928926" y="283.87438" style="fill: #1f78b4; stroke: #1f78b4"/>
     <use xlink:href="#m74524c438a" x="166.928926" y="252.138843" style="fill: #1f78b4; stroke: #1f78b4"/>
     <use xlink:href="#m74524c438a" x="166.928926" y="220.403306" style="fill: #1f78b4; stroke: #1f78b4"/>
     <use xlink:href="#m74524c438a" x="166.928926" y="188.667769" style="fill: #1f78b4; stroke: #1f78b4"/>
     <use xlink:href="#m74524c438a" x="166.928926" y="156.932231" style="fill: #1f78b4; stroke: #1f78b4"/>
     <use xlink:href="#m74524c438a" x="166.928926" y="125.196694" style="fill: #1f78b4; stroke: #1f78b4"/>
     <use xlink:href="#m74524c438a" x="166.928926" y="93.461157" style="fill: #1f78b4; stroke: #1f78b4"/>
     <use xlink:href="#m74524c438a" x="166.928926" y="61.72562" style="fill: #1f78b4; stroke: #1f78b4"/>
     <use xlink:href="#m74524c438a" x="166.928926" y="29.990083" style="fill: #1f78b4; stroke: #1f78b4"/>
     <use xlink:href="#m74524c438a" x="209.242975" y="315.609917" style="fill: #1f78b4; stroke: #1f78b4"/>
     <use xlink:href="#m74524c438a" x="209.242975" y="283.87438" style="fill: #1f78b4; stroke: #1f78b4"/>
     <use xlink:href="#m74524c438a" x="209.242975" y="252.138843" style="fill: #1f78b4; stroke: #1f78b4"/>
     <use xlink:href="#m74524c438a" x="209.242975" y="220.403306" style="fill: #1f78b4; stroke: #1f78b4"/>
     <use xlink:href="#m74524c438a" x="209.242975" y="188.667769" style="fill: #1f78b4; stroke: #1f78b4"/>
     <use xlink:href="#m74524c438a" x="209.242975" y="156.932231" style="fill: #1f78b4; stroke: #1f78b4"/>
     <use xlink:href="#m74524c438a" x="209.242975" y="125.196694" style="fill: #1f78b4; stroke: #1f78b4"/>
     <use xlink:href="#m74524c438a" x="209.242975" y="93.461157" style="fill: #1f78b4; stroke: #1f78b4"/>
     <use xlink:href="#m74524c438a" x="209.242975" y="61.72562" style="fill: #1f78b4; stroke: #1f78b4"/>
     <use xlink:href="#m74524c438a" x="209.242975" y="29.990083" style="fill: #1f78b4; stroke: #1f78b4"/>
     <use xlink:href="#m74524c438a" x="251.557025" y="315.609917" style="fill: #1f78b4; stroke: #1f78b4"/>
     <use xlink:href="#m74524c438a" x="251.557025" y="283.87438" style="fill: #1f78b4; stroke: #1f78b4"/>
     <use xlink:href="#m74524c438a" x="251.557025" y="252.138843" style="fill: #1f78b4; stroke: #1f78b4"/>
     <use xlink:href="#m74524c438a" x="251.557025" y="220.403306" style="fill: #1f78b4; stroke: #1f78b4"/>
     <use xlink:href="#m74524c438a" x="251.557025" y="188.667769" style="fill: #1f78b4; stroke: #1f78b4"/>
     <use xlink:href="#m74524c438a" x="251.557025" y="156.932231" style="fill: #1f78b4; stroke: #1f78b4"/>
     <use xlink:href="#m74524c438a" x="251.557025" y="125.196694" style="fill: #1f78b4; stroke: #1f78b4"/>
     <use xlink:href="#m74524c438a" x="251.557025" y="93.461157" style="fill: #1f78b4; stroke: #1f78b4"/>
     <use xlink:href="#m74524c438a" x="251.557025" y="61.72562" style="fill: #1f78b4; stroke: #1f78b4"/>
     <use xlink:href="#m74524c438a" x="251.557025" y="29.990083" style="fill: #1f78b4; stroke: #1f78b4"/>
     <use xlink:href="#m74524c438a" x="293.871074" y="315.609917" style="fill: #1f78b4; stroke: #1f78b4"/>
     <use xlink:href="#m74524c438a" x="293.871074" y="283.87438" style="fill: #1f78b4; stroke: #1f78b4"/>
     <use xlink:href="#m74524c438a" x="293.871074" y="252.138843" style="fill: #1f78b4; stroke: #1f78b4"/>
     <use xlink:href="#m74524c438a" x="293.871074" y="220.403306" style="fill: #1f78b4; stroke: #1f78b4"/>
     <use xlink:href="#m74524c438a" x="293.871074" y="188.667769" style="fill: #1f78b4; stroke: #1f78b4"/>
     <use xlink:href="#m74524c438a" x="293.871074" y="156.932231" style="fill: #1f78b4; stroke: #1f78b4"/>
     <use xlink:href="#m74524c438a" x="293.871074" y="125.196694" style="fill: #1f78b4; stroke: #1f78b4"/>
     <use xlink:href="#m74524c438a" x="293.871074" y="93.461157" style="fill: #1f78b4; stroke: #1f78b4"/>
     <use xlink:href="#m74524c438a" x="293.871074" y="61.72562" style="fill: #1f78b4; stroke: #1f78b4"/>
     <use xlink:href="#m74524c438a" x="293.871074" y="29.990083" style="fill: #1f78b4; stroke: #1f78b4"/>
     <use xlink:href="#m74524c438a" x="336.185124" y="315.609917" style="fill: #1f78b4; stroke: #1f78b4"/>
     <use xlink:href="#m74524c438a" x="336.185124" y="283.87438" style="fill: #1f78b4; stroke: #1f78b4"/>
     <use xlink:href="#m74524c438a" x="336.185124" y="252.138843" style="fill: #1f78b4; stroke: #1f78b4"/>
     <use xlink:href="#m74524c438a" x="336.185124" y="220.403306" style="fill: #1f78b4; stroke: #1f78b4"/>
     <use xlink:href="#m74524c438a" x="336.185124" y="188.667769" style="fill: #1f78b4; stroke: #1f78b4"/>
     <use xlink:href="#m74524c438a" x="336.185124" y="156.932231" style="fill: #1f78b4; stroke: #1f78b4"/>
     <use xlink:href="#m74524c438a" x="336.185124" y="125.196694" style="fill: #1f78b4; stroke: #1f78b4"/>
     <use xlink:href="#m74524c438a" x="336.185124" y="93.461157" style="fill: #1f78b4; stroke: #1f78b4"/>
     <use xlink:href="#m74524c438a" x="336.185124" y="61.72562" style="fill: #1f78b4; stroke: #1f78b4"/>
     <use xlink:href="#m74524c438a" x="336.185124" y="29.990083" style="fill: #1f78b4; stroke: #1f78b4"/>
     <use xlink:href="#m74524c438a" x="378.499174" y="315.609917" style="fill: #1f78b4; stroke: #1f78b4"/>
     <use xlink:href="#m74524c438a" x="378.499174" y="283.87438" style="fill: #1f78b4; stroke: #1f78b4"/>
     <use xlink:href="#m74524c438a" x="378.499174" y="252.138843" style="fill: #1f78b4; stroke: #1f78b4"/>
     <use xlink:href="#m74524c438a" x="378.499174" y="220.403306" style="fill: #1f78b4; stroke: #1f78b4"/>
     <use xlink:href="#m74524c438a" x="378.499174" y="188.667769" style="fill: #1f78b4; stroke: #1f78b4"/>
     <use xlink:href="#m74524c438a" x="378.499174" y="156.932231" style="fill: #1f78b4; stroke: #1f78b4"/>
     <use xlink:href="#m74524c438a" x="378.499174" y="125.196694" style="fill: #1f78b4; stroke: #1f78b4"/>
     <use xlink:href="#m74524c438a" x="378.499174" y="93.461157" style="fill: #1f78b4; stroke: #1f78b4"/>
     <use xlink:href="#m74524c438a" x="378.499174" y="61.72562" style="fill: #1f78b4; stroke: #1f78b4"/>
     <use xlink:href="#m74524c438a" x="378.499174" y="29.990083" style="fill: #1f78b4; stroke: #1f78b4"/>
     <use xlink:href="#m74524c438a" x="420.813223" y="315.609917" style="fill: #1f78b4; stroke: #1f78b4"/>
     <use xlink:href="#m74524c438a" x="420.813223" y="283.87438" style="fill: #1f78b4; stroke: #1f78b4"/>
     <use xlink:href="#m74524c438a" x="420.813223" y="252.138843" style="fill: #1f78b4; stroke: #1f78b4"/>
     <use xlink:href="#m74524c438a" x="420.813223" y="220.403306" style="fill: #1f78b4; stroke: #1f78b4"/>
     <use xlink:href="#m74524c438a" x="420.813223" y="188.667769" style="fill: #1f78b4; stroke: #1f78b4"/>
     <use xlink:href="#m74524c438a" x="420.813223" y="156.932231" style="fill: #1f78b4; stroke: #1f78b4"/>
     <use xlink:href="#m74524c438a" x="420.813223" y="125.196694" style="fill: #1f78b4; stroke: #1f78b4"/>
     <use xlink:href="#m74524c438a" x="420.813223" y="93.461157" style="fill: #1f78b4; stroke: #1f78b4"/>
     <use xlink:href="#m74524c438a" x="420.813223" y="61.72562" style="fill: #1f78b4; stroke: #1f78b4"/>
     <use xlink:href="#m74524c438a" x="420.813223" y="29.990083" style="fill: #1f78b4; stroke: #1f78b4"/>
    </g>
   </g>
   <g id="text_1">
    <!-- funky town -->
    <g transform="translate(197.235 -6) scale(0.12 -0.12)">
     <defs>
      <path id="DejaVuSans-66" d="M 2375 4863 
L 2375 4384 
L 1825 4384 
Q 1516 4384 1395 4259 
Q 1275 4134 1275 3809 
L 1275 3500 
L 2222 3500 
L 2222 3053 
L 1275 3053 
L 1275 0 
L 697 0 
L 697 3053 
L 147 3053 
L 147 3500 
L 697 3500 
L 697 3744 
Q 697 4328 969 4595 
Q 1241 4863 1831 4863 
L 2375 4863 
z
" transform="scale(0.015625)"/>
      <path id="DejaVuSans-75" d="M 544 1381 
L 544 3500 
L 1119 3500 
L 1119 1403 
Q 1119 906 1312 657 
Q 1506 409 1894 409 
Q 2359 409 2629 706 
Q 2900 1003 2900 1516 
L 2900 3500 
L 3475 3500 
L 3475 0 
L 2900 0 
L 2900 538 
Q 2691 219 2414 64 
Q 2138 -91 1772 -91 
Q 1169 -91 856 284 
Q 544 659 544 1381 
z
M 1991 3584 
L 1991 3584 
z
" transform="scale(0.015625)"/>
      <path id="DejaVuSans-6e" d="M 3513 2113 
L 3513 0 
L 2938 0 
L 2938 2094 
Q 2938 2591 2744 2837 
Q 2550 3084 2163 3084 
Q 1697 3084 1428 2787 
Q 1159 2491 1159 1978 
L 1159 0 
L 581 0 
L 581 3500 
L 1159 3500 
L 1159 2956 
Q 1366 3272 1645 3428 
Q 1925 3584 2291 3584 
Q 2894 3584 3203 3211 
Q 3513 2838 3513 2113 
z
" transform="scale(0.015625)"/>
      <path id="DejaVuSans-6b" d="M 581 4863 
L 1159 4863 
L 1159 1991 
L 2875 3500 
L 3609 3500 
L 1753 1863 
L 3688 0 
L 2938 0 
L 1159 1709 
L 1159 0 
L 581 0 
L 581 4863 
z
" transform="scale(0.015625)"/>
      <path id="DejaVuSans-79" d="M 2059 -325 
Q 1816 -950 1584 -1140 
Q 1353 -1331 966 -1331 
L 506 -1331 
L 506 -850 
L 844 -850 
Q 1081 -850 1212 -737 
Q 1344 -625 1503 -206 
L 1606 56 
L 191 3500 
L 800 3500 
L 1894 763 
L 2988 3500 
L 3597 3500 
L 2059 -325 
z
" transform="scale(0.015625)"/>
      <path id="DejaVuSans-20" transform="scale(0.015625)"/>
      <path id="DejaVuSans-74" d="M 1172 4494 
L 1172 3500 
L 2356 3500 
L 2356 3053 
L 1172 3053 
L 1172 1153 
Q 1172 725 1289 603 
Q 1406 481 1766 481 
L 2356 481 
L 2356 0 
L 1766 0 
Q 1100 0 847 248 
Q 594 497 594 1153 
L 594 3053 
L 172 3053 
L 172 3500 
L 594 3500 
L 594 4494 
L 1172 4494 
z
" transform="scale(0.015625)"/>
      <path id="DejaVuSans-6f" d="M 1959 3097 
Q 1497 3097 1228 2736 
Q 959 2375 959 1747 
Q 959 1119 1226 758 
Q 1494 397 1959 397 
Q 2419 397 2687 759 
Q 2956 1122 2956 1747 
Q 2956 2369 2687 2733 
Q 2419 3097 1959 3097 
z
M 1959 3584 
Q 2709 3584 3137 3096 
Q 3566 2609 3566 1747 
Q 3566 888 3137 398 
Q 2709 -91 1959 -91 
Q 1206 -91 779 398 
Q 353 888 353 1747 
Q 353 2609 779 3096 
Q 1206 3584 1959 3584 
z
" transform="scale(0.015625)"/>
      <path id="DejaVuSans-77" d="M 269 3500 
L 844 3500 
L 1563 769 
L 2278 3500 
L 2956 3500 
L 3675 769 
L 4391 3500 
L 4966 3500 
L 4050 0 
L 3372 0 
L 2619 2869 
L 1863 0 
L 1184 0 
L 269 3500 
z
" transform="scale(0.015625)"/>
     </defs>
     <use xlink:href="#DejaVuSans-66"/>
     <use xlink:href="#DejaVuSans-75" x="35.205078"/>
     <use xlink:href="#DejaVuSans-6e" x="98.583984"/>
     <use xlink:href="#DejaVuSans-6b" x="161.962891"/>
     <use xlink:href="#DejaVuSans-79" x="216.248047"/>
     <use xlink:href="#DejaVuSans-20" x="275.427734"/>
     <use xlink:href="#DejaVuSans-74" x="307.214844"/>
     <use xlink:href="#DejaVuSans-6f" x="346.423828"/>
     <use xlink:href="#DejaVuSans-77" x="407.605469"/>
     <use xlink:href="#DejaVuSans-6e" x="489.392578"/>
    </g>
   </g>
  </g>
 </g>
 <defs>
  <clipPath id="pa0b3379db2">
   <rect x="0" y="0" width="460.8" height="345.6"/>
  </clipPath>
 </defs>
</svg>
