<?xml version="1.0" encoding="utf-8" standalone="no"?>
<!DOCTYPE svg PUBLIC "-//W3C//DTD SVG 1.1//EN"
  "http://www.w3.org/Graphics/SVG/1.1/DTD/svg11.dtd">
<svg xmlns:xlink="http://www.w3.org/1999/xlink" width="460.8pt" height="345.6pt" viewBox="0 0 460.8 345.6" xmlns="http://www.w3.org/2000/svg" version="1.1">
 <metadata>
  <rdf:RDF xmlns:dc="http://purl.org/dc/elements/1.1/" xmlns:cc="http://creativecommons.org/ns#" xmlns:rdf="http://www.w3.org/1999/02/22-rdf-syntax-ns#">
   <cc:Work>
    <dc:type rdf:resource="http://purl.org/dc/dcmitype/StillImage"/>
    <dc:date>2023-10-11T00:01:41.073944</dc:date>
    <dc:format>image/svg+xml</dc:format>
    <dc:creator>
     <cc:Agent>
      <dc:title>Matplotlib v3.7.1, https://matplotlib.org/</dc:title>
     </cc:Agent>
    </dc:creator>
   </cc:Work>
  </rdf:RDF>
 </metadata>
 <defs>
  <style type="text/css">*{stroke-linejoin: round; stroke-linecap: butt}</style>
 </defs>
 <g id="figure_1">
  <g id="patch_1">
   <path d="M 0 345.6 
L 460.8 345.6 
L 460.8 0 
L 0 0 
z
" style="fill: #ffffff"/>
  </g>
  <g id="axes_1">
   <g id="patch_2">
    <path d="M 57.6 307.584 
L 414.72 307.584 
L 414.72 41.472 
L 57.6 41.472 
z
" style="fill: #ffffff"/>
   </g>
   <g id="matplotlib.axis_1">
    <g id="xtick_1">
     <g id="line2d_1">
      <defs>
       <path id="mff42861d60" d="M 0 0 
L 0 3.5 
" style="stroke: #000000; stroke-width: 0.8"/>
      </defs>
      <g>
       <use xlink:href="#mff42861d60" x="73.832727" y="307.584" style="stroke: #000000; stroke-width: 0.8"/>
      </g>
     </g>
     <g id="text_1">
      <!-- 0 -->
      <g transform="translate(70.651477 322.182437) scale(0.1 -0.1)">
       <defs>
        <path id="DejaVuSans-30" d="M 2034 4250 
Q 1547 4250 1301 3770 
Q 1056 3291 1056 2328 
Q 1056 1369 1301 889 
Q 1547 409 2034 409 
Q 2525 409 2770 889 
Q 3016 1369 3016 2328 
Q 3016 3291 2770 3770 
Q 2525 4250 2034 4250 
z
M 2034 4750 
Q 2819 4750 3233 4129 
Q 3647 3509 3647 2328 
Q 3647 1150 3233 529 
Q 2819 -91 2034 -91 
Q 1250 -91 836 529 
Q 422 1150 422 2328 
Q 422 3509 836 4129 
Q 1250 4750 2034 4750 
z
" transform="scale(0.015625)"/>
       </defs>
       <use xlink:href="#DejaVuSans-30"/>
      </g>
     </g>
    </g>
    <g id="xtick_2">
     <g id="line2d_2">
      <g>
       <use xlink:href="#mff42861d60" x="114.439925" y="307.584" style="stroke: #000000; stroke-width: 0.8"/>
      </g>
     </g>
     <g id="text_2">
      <!-- 200 -->
      <g transform="translate(104.896175 322.182437) scale(0.1 -0.1)">
       <defs>
        <path id="DejaVuSans-32" d="M 1228 531 
L 3431 531 
L 3431 0 
L 469 0 
L 469 531 
Q 828 903 1448 1529 
Q 2069 2156 2228 2338 
Q 2531 2678 2651 2914 
Q 2772 3150 2772 3378 
Q 2772 3750 2511 3984 
Q 2250 4219 1831 4219 
Q 1534 4219 1204 4116 
Q 875 4013 500 3803 
L 500 4441 
Q 881 4594 1212 4672 
Q 1544 4750 1819 4750 
Q 2544 4750 2975 4387 
Q 3406 4025 3406 3419 
Q 3406 3131 3298 2873 
Q 3191 2616 2906 2266 
Q 2828 2175 2409 1742 
Q 1991 1309 1228 531 
z
" transform="scale(0.015625)"/>
       </defs>
       <use xlink:href="#DejaVuSans-32"/>
       <use xlink:href="#DejaVuSans-30" x="63.623047"/>
       <use xlink:href="#DejaVuSans-30" x="127.246094"/>
      </g>
     </g>
    </g>
    <g id="xtick_3">
     <g id="line2d_3">
      <g>
       <use xlink:href="#mff42861d60" x="155.047123" y="307.584" style="stroke: #000000; stroke-width: 0.8"/>
      </g>
     </g>
     <g id="text_3">
      <!-- 400 -->
      <g transform="translate(145.503373 322.182437) scale(0.1 -0.1)">
       <defs>
        <path id="DejaVuSans-34" d="M 2419 4116 
L 825 1625 
L 2419 1625 
L 2419 4116 
z
M 2253 4666 
L 3047 4666 
L 3047 1625 
L 3713 1625 
L 3713 1100 
L 3047 1100 
L 3047 0 
L 2419 0 
L 2419 1100 
L 313 1100 
L 313 1709 
L 2253 4666 
z
" transform="scale(0.015625)"/>
       </defs>
       <use xlink:href="#DejaVuSans-34"/>
       <use xlink:href="#DejaVuSans-30" x="63.623047"/>
       <use xlink:href="#DejaVuSans-30" x="127.246094"/>
      </g>
     </g>
    </g>
    <g id="xtick_4">
     <g id="line2d_4">
      <g>
       <use xlink:href="#mff42861d60" x="195.65432" y="307.584" style="stroke: #000000; stroke-width: 0.8"/>
      </g>
     </g>
     <g id="text_4">
      <!-- 600 -->
      <g transform="translate(186.11057 322.182437) scale(0.1 -0.1)">
       <defs>
        <path id="DejaVuSans-36" d="M 2113 2584 
Q 1688 2584 1439 2293 
Q 1191 2003 1191 1497 
Q 1191 994 1439 701 
Q 1688 409 2113 409 
Q 2538 409 2786 701 
Q 3034 994 3034 1497 
Q 3034 2003 2786 2293 
Q 2538 2584 2113 2584 
z
M 3366 4563 
L 3366 3988 
Q 3128 4100 2886 4159 
Q 2644 4219 2406 4219 
Q 1781 4219 1451 3797 
Q 1122 3375 1075 2522 
Q 1259 2794 1537 2939 
Q 1816 3084 2150 3084 
Q 2853 3084 3261 2657 
Q 3669 2231 3669 1497 
Q 3669 778 3244 343 
Q 2819 -91 2113 -91 
Q 1303 -91 875 529 
Q 447 1150 447 2328 
Q 447 3434 972 4092 
Q 1497 4750 2381 4750 
Q 2619 4750 2861 4703 
Q 3103 4656 3366 4563 
z
" transform="scale(0.015625)"/>
       </defs>
       <use xlink:href="#DejaVuSans-36"/>
       <use xlink:href="#DejaVuSans-30" x="63.623047"/>
       <use xlink:href="#DejaVuSans-30" x="127.246094"/>
      </g>
     </g>
    </g>
    <g id="xtick_5">
     <g id="line2d_5">
      <g>
       <use xlink:href="#mff42861d60" x="236.261518" y="307.584" style="stroke: #000000; stroke-width: 0.8"/>
      </g>
     </g>
     <g id="text_5">
      <!-- 800 -->
      <g transform="translate(226.717768 322.182437) scale(0.1 -0.1)">
       <defs>
        <path id="DejaVuSans-38" d="M 2034 2216 
Q 1584 2216 1326 1975 
Q 1069 1734 1069 1313 
Q 1069 891 1326 650 
Q 1584 409 2034 409 
Q 2484 409 2743 651 
Q 3003 894 3003 1313 
Q 3003 1734 2745 1975 
Q 2488 2216 2034 2216 
z
M 1403 2484 
Q 997 2584 770 2862 
Q 544 3141 544 3541 
Q 544 4100 942 4425 
Q 1341 4750 2034 4750 
Q 2731 4750 3128 4425 
Q 3525 4100 3525 3541 
Q 3525 3141 3298 2862 
Q 3072 2584 2669 2484 
Q 3125 2378 3379 2068 
Q 3634 1759 3634 1313 
Q 3634 634 3220 271 
Q 2806 -91 2034 -91 
Q 1263 -91 848 271 
Q 434 634 434 1313 
Q 434 1759 690 2068 
Q 947 2378 1403 2484 
z
M 1172 3481 
Q 1172 3119 1398 2916 
Q 1625 2713 2034 2713 
Q 2441 2713 2670 2916 
Q 2900 3119 2900 3481 
Q 2900 3844 2670 4047 
Q 2441 4250 2034 4250 
Q 1625 4250 1398 4047 
Q 1172 3844 1172 3481 
z
" transform="scale(0.015625)"/>
       </defs>
       <use xlink:href="#DejaVuSans-38"/>
       <use xlink:href="#DejaVuSans-30" x="63.623047"/>
       <use xlink:href="#DejaVuSans-30" x="127.246094"/>
      </g>
     </g>
    </g>
    <g id="xtick_6">
     <g id="line2d_6">
      <g>
       <use xlink:href="#mff42861d60" x="276.868716" y="307.584" style="stroke: #000000; stroke-width: 0.8"/>
      </g>
     </g>
     <g id="text_6">
      <!-- 1000 -->
      <g transform="translate(264.143716 322.182437) scale(0.1 -0.1)">
       <defs>
        <path id="DejaVuSans-31" d="M 794 531 
L 1825 531 
L 1825 4091 
L 703 3866 
L 703 4441 
L 1819 4666 
L 2450 4666 
L 2450 531 
L 3481 531 
L 3481 0 
L 794 0 
L 794 531 
z
" transform="scale(0.015625)"/>
       </defs>
       <use xlink:href="#DejaVuSans-31"/>
       <use xlink:href="#DejaVuSans-30" x="63.623047"/>
       <use xlink:href="#DejaVuSans-30" x="127.246094"/>
       <use xlink:href="#DejaVuSans-30" x="190.869141"/>
      </g>
     </g>
    </g>
    <g id="xtick_7">
     <g id="line2d_7">
      <g>
       <use xlink:href="#mff42861d60" x="317.475913" y="307.584" style="stroke: #000000; stroke-width: 0.8"/>
      </g>
     </g>
     <g id="text_7">
      <!-- 1200 -->
      <g transform="translate(304.750913 322.182437) scale(0.1 -0.1)">
       <use xlink:href="#DejaVuSans-31"/>
       <use xlink:href="#DejaVuSans-32" x="63.623047"/>
       <use xlink:href="#DejaVuSans-30" x="127.246094"/>
       <use xlink:href="#DejaVuSans-30" x="190.869141"/>
      </g>
     </g>
    </g>
    <g id="xtick_8">
     <g id="line2d_8">
      <g>
       <use xlink:href="#mff42861d60" x="358.083111" y="307.584" style="stroke: #000000; stroke-width: 0.8"/>
      </g>
     </g>
     <g id="text_8">
      <!-- 1400 -->
      <g transform="translate(345.358111 322.182437) scale(0.1 -0.1)">
       <use xlink:href="#DejaVuSans-31"/>
       <use xlink:href="#DejaVuSans-34" x="63.623047"/>
       <use xlink:href="#DejaVuSans-30" x="127.246094"/>
       <use xlink:href="#DejaVuSans-30" x="190.869141"/>
      </g>
     </g>
    </g>
    <g id="xtick_9">
     <g id="line2d_9">
      <g>
       <use xlink:href="#mff42861d60" x="398.690309" y="307.584" style="stroke: #000000; stroke-width: 0.8"/>
      </g>
     </g>
     <g id="text_9">
      <!-- 1600 -->
      <g transform="translate(385.965309 322.182437) scale(0.1 -0.1)">
       <use xlink:href="#DejaVuSans-31"/>
       <use xlink:href="#DejaVuSans-36" x="63.623047"/>
       <use xlink:href="#DejaVuSans-30" x="127.246094"/>
       <use xlink:href="#DejaVuSans-30" x="190.869141"/>
      </g>
     </g>
    </g>
    <g id="text_10">
     <!-- Number of Edges -->
     <g transform="translate(192.887344 335.860562) scale(0.1 -0.1)">
      <defs>
       <path id="DejaVuSans-4e" d="M 628 4666 
L 1478 4666 
L 3547 763 
L 3547 4666 
L 4159 4666 
L 4159 0 
L 3309 0 
L 1241 3903 
L 1241 0 
L 628 0 
L 628 4666 
z
" transform="scale(0.015625)"/>
       <path id="DejaVuSans-75" d="M 544 1381 
L 544 3500 
L 1119 3500 
L 1119 1403 
Q 1119 906 1312 657 
Q 1506 409 1894 409 
Q 2359 409 2629 706 
Q 2900 1003 2900 1516 
L 2900 3500 
L 3475 3500 
L 3475 0 
L 2900 0 
L 2900 538 
Q 2691 219 2414 64 
Q 2138 -91 1772 -91 
Q 1169 -91 856 284 
Q 544 659 544 1381 
z
M 1991 3584 
L 1991 3584 
z
" transform="scale(0.015625)"/>
       <path id="DejaVuSans-6d" d="M 3328 2828 
Q 3544 3216 3844 3400 
Q 4144 3584 4550 3584 
Q 5097 3584 5394 3201 
Q 5691 2819 5691 2113 
L 5691 0 
L 5113 0 
L 5113 2094 
Q 5113 2597 4934 2840 
Q 4756 3084 4391 3084 
Q 3944 3084 3684 2787 
Q 3425 2491 3425 1978 
L 3425 0 
L 2847 0 
L 2847 2094 
Q 2847 2600 2669 2842 
Q 2491 3084 2119 3084 
Q 1678 3084 1418 2786 
Q 1159 2488 1159 1978 
L 1159 0 
L 581 0 
L 581 3500 
L 1159 3500 
L 1159 2956 
Q 1356 3278 1631 3431 
Q 1906 3584 2284 3584 
Q 2666 3584 2933 3390 
Q 3200 3197 3328 2828 
z
" transform="scale(0.015625)"/>
       <path id="DejaVuSans-62" d="M 3116 1747 
Q 3116 2381 2855 2742 
Q 2594 3103 2138 3103 
Q 1681 3103 1420 2742 
Q 1159 2381 1159 1747 
Q 1159 1113 1420 752 
Q 1681 391 2138 391 
Q 2594 391 2855 752 
Q 3116 1113 3116 1747 
z
M 1159 2969 
Q 1341 3281 1617 3432 
Q 1894 3584 2278 3584 
Q 2916 3584 3314 3078 
Q 3713 2572 3713 1747 
Q 3713 922 3314 415 
Q 2916 -91 2278 -91 
Q 1894 -91 1617 61 
Q 1341 213 1159 525 
L 1159 0 
L 581 0 
L 581 4863 
L 1159 4863 
L 1159 2969 
z
" transform="scale(0.015625)"/>
       <path id="DejaVuSans-65" d="M 3597 1894 
L 3597 1613 
L 953 1613 
Q 991 1019 1311 708 
Q 1631 397 2203 397 
Q 2534 397 2845 478 
Q 3156 559 3463 722 
L 3463 178 
Q 3153 47 2828 -22 
Q 2503 -91 2169 -91 
Q 1331 -91 842 396 
Q 353 884 353 1716 
Q 353 2575 817 3079 
Q 1281 3584 2069 3584 
Q 2775 3584 3186 3129 
Q 3597 2675 3597 1894 
z
M 3022 2063 
Q 3016 2534 2758 2815 
Q 2500 3097 2075 3097 
Q 1594 3097 1305 2825 
Q 1016 2553 972 2059 
L 3022 2063 
z
" transform="scale(0.015625)"/>
       <path id="DejaVuSans-72" d="M 2631 2963 
Q 2534 3019 2420 3045 
Q 2306 3072 2169 3072 
Q 1681 3072 1420 2755 
Q 1159 2438 1159 1844 
L 1159 0 
L 581 0 
L 581 3500 
L 1159 3500 
L 1159 2956 
Q 1341 3275 1631 3429 
Q 1922 3584 2338 3584 
Q 2397 3584 2469 3576 
Q 2541 3569 2628 3553 
L 2631 2963 
z
" transform="scale(0.015625)"/>
       <path id="DejaVuSans-20" transform="scale(0.015625)"/>
       <path id="DejaVuSans-6f" d="M 1959 3097 
Q 1497 3097 1228 2736 
Q 959 2375 959 1747 
Q 959 1119 1226 758 
Q 1494 397 1959 397 
Q 2419 397 2687 759 
Q 2956 1122 2956 1747 
Q 2956 2369 2687 2733 
Q 2419 3097 1959 3097 
z
M 1959 3584 
Q 2709 3584 3137 3096 
Q 3566 2609 3566 1747 
Q 3566 888 3137 398 
Q 2709 -91 1959 -91 
Q 1206 -91 779 398 
Q 353 888 353 1747 
Q 353 2609 779 3096 
Q 1206 3584 1959 3584 
z
" transform="scale(0.015625)"/>
       <path id="DejaVuSans-66" d="M 2375 4863 
L 2375 4384 
L 1825 4384 
Q 1516 4384 1395 4259 
Q 1275 4134 1275 3809 
L 1275 3500 
L 2222 3500 
L 2222 3053 
L 1275 3053 
L 1275 0 
L 697 0 
L 697 3053 
L 147 3053 
L 147 3500 
L 697 3500 
L 697 3744 
Q 697 4328 969 4595 
Q 1241 4863 1831 4863 
L 2375 4863 
z
" transform="scale(0.015625)"/>
       <path id="DejaVuSans-45" d="M 628 4666 
L 3578 4666 
L 3578 4134 
L 1259 4134 
L 1259 2753 
L 3481 2753 
L 3481 2222 
L 1259 2222 
L 1259 531 
L 3634 531 
L 3634 0 
L 628 0 
L 628 4666 
z
" transform="scale(0.015625)"/>
       <path id="DejaVuSans-64" d="M 2906 2969 
L 2906 4863 
L 3481 4863 
L 3481 0 
L 2906 0 
L 2906 525 
Q 2725 213 2448 61 
Q 2172 -91 1784 -91 
Q 1150 -91 751 415 
Q 353 922 353 1747 
Q 353 2572 751 3078 
Q 1150 3584 1784 3584 
Q 2172 3584 2448 3432 
Q 2725 3281 2906 2969 
z
M 947 1747 
Q 947 1113 1208 752 
Q 1469 391 1925 391 
Q 2381 391 2643 752 
Q 2906 1113 2906 1747 
Q 2906 2381 2643 2742 
Q 2381 3103 1925 3103 
Q 1469 3103 1208 2742 
Q 947 2381 947 1747 
z
" transform="scale(0.015625)"/>
       <path id="DejaVuSans-67" d="M 2906 1791 
Q 2906 2416 2648 2759 
Q 2391 3103 1925 3103 
Q 1463 3103 1205 2759 
Q 947 2416 947 1791 
Q 947 1169 1205 825 
Q 1463 481 1925 481 
Q 2391 481 2648 825 
Q 2906 1169 2906 1791 
z
M 3481 434 
Q 3481 -459 3084 -895 
Q 2688 -1331 1869 -1331 
Q 1566 -1331 1297 -1286 
Q 1028 -1241 775 -1147 
L 775 -588 
Q 1028 -725 1275 -790 
Q 1522 -856 1778 -856 
Q 2344 -856 2625 -561 
Q 2906 -266 2906 331 
L 2906 616 
Q 2728 306 2450 153 
Q 2172 0 1784 0 
Q 1141 0 747 490 
Q 353 981 353 1791 
Q 353 2603 747 3093 
Q 1141 3584 1784 3584 
Q 2172 3584 2450 3431 
Q 2728 3278 2906 2969 
L 2906 3500 
L 3481 3500 
L 3481 434 
z
" transform="scale(0.015625)"/>
       <path id="DejaVuSans-73" d="M 2834 3397 
L 2834 2853 
Q 2591 2978 2328 3040 
Q 2066 3103 1784 3103 
Q 1356 3103 1142 2972 
Q 928 2841 928 2578 
Q 928 2378 1081 2264 
Q 1234 2150 1697 2047 
L 1894 2003 
Q 2506 1872 2764 1633 
Q 3022 1394 3022 966 
Q 3022 478 2636 193 
Q 2250 -91 1575 -91 
Q 1294 -91 989 -36 
Q 684 19 347 128 
L 347 722 
Q 666 556 975 473 
Q 1284 391 1588 391 
Q 1994 391 2212 530 
Q 2431 669 2431 922 
Q 2431 1156 2273 1281 
Q 2116 1406 1581 1522 
L 1381 1569 
Q 847 1681 609 1914 
Q 372 2147 372 2553 
Q 372 3047 722 3315 
Q 1072 3584 1716 3584 
Q 2034 3584 2315 3537 
Q 2597 3491 2834 3397 
z
" transform="scale(0.015625)"/>
      </defs>
      <use xlink:href="#DejaVuSans-4e"/>
      <use xlink:href="#DejaVuSans-75" x="74.804688"/>
      <use xlink:href="#DejaVuSans-6d" x="138.183594"/>
      <use xlink:href="#DejaVuSans-62" x="235.595703"/>
      <use xlink:href="#DejaVuSans-65" x="299.072266"/>
      <use xlink:href="#DejaVuSans-72" x="360.595703"/>
      <use xlink:href="#DejaVuSans-20" x="401.708984"/>
      <use xlink:href="#DejaVuSans-6f" x="433.496094"/>
      <use xlink:href="#DejaVuSans-66" x="494.677734"/>
      <use xlink:href="#DejaVuSans-20" x="529.882812"/>
      <use xlink:href="#DejaVuSans-45" x="561.669922"/>
      <use xlink:href="#DejaVuSans-64" x="624.853516"/>
      <use xlink:href="#DejaVuSans-67" x="688.330078"/>
      <use xlink:href="#DejaVuSans-65" x="751.806641"/>
      <use xlink:href="#DejaVuSans-73" x="813.330078"/>
     </g>
    </g>
   </g>
   <g id="matplotlib.axis_2">
    <g id="ytick_1">
     <g id="line2d_10">
      <defs>
       <path id="m2fc30c3c4c" d="M 0 0 
L -3.5 0 
" style="stroke: #000000; stroke-width: 0.8"/>
      </defs>
      <g>
       <use xlink:href="#m2fc30c3c4c" x="57.6" y="295.790968" style="stroke: #000000; stroke-width: 0.8"/>
      </g>
     </g>
     <g id="text_11">
      <!-- 0 -->
      <g transform="translate(44.2375 299.590187) scale(0.1 -0.1)">
       <use xlink:href="#DejaVuSans-30"/>
      </g>
     </g>
    </g>
    <g id="ytick_2">
     <g id="line2d_11">
      <g>
       <use xlink:href="#m2fc30c3c4c" x="57.6" y="265.494162" style="stroke: #000000; stroke-width: 0.8"/>
      </g>
     </g>
     <g id="text_12">
      <!-- 200 -->
      <g transform="translate(31.5125 269.29338) scale(0.1 -0.1)">
       <use xlink:href="#DejaVuSans-32"/>
       <use xlink:href="#DejaVuSans-30" x="63.623047"/>
       <use xlink:href="#DejaVuSans-30" x="127.246094"/>
      </g>
     </g>
    </g>
    <g id="ytick_3">
     <g id="line2d_12">
      <g>
       <use xlink:href="#m2fc30c3c4c" x="57.6" y="235.197355" style="stroke: #000000; stroke-width: 0.8"/>
      </g>
     </g>
     <g id="text_13">
      <!-- 400 -->
      <g transform="translate(31.5125 238.996574) scale(0.1 -0.1)">
       <use xlink:href="#DejaVuSans-34"/>
       <use xlink:href="#DejaVuSans-30" x="63.623047"/>
       <use xlink:href="#DejaVuSans-30" x="127.246094"/>
      </g>
     </g>
    </g>
    <g id="ytick_4">
     <g id="line2d_13">
      <g>
       <use xlink:href="#m2fc30c3c4c" x="57.6" y="204.900549" style="stroke: #000000; stroke-width: 0.8"/>
      </g>
     </g>
     <g id="text_14">
      <!-- 600 -->
      <g transform="translate(31.5125 208.699767) scale(0.1 -0.1)">
       <use xlink:href="#DejaVuSans-36"/>
       <use xlink:href="#DejaVuSans-30" x="63.623047"/>
       <use xlink:href="#DejaVuSans-30" x="127.246094"/>
      </g>
     </g>
    </g>
    <g id="ytick_5">
     <g id="line2d_14">
      <g>
       <use xlink:href="#m2fc30c3c4c" x="57.6" y="174.603742" style="stroke: #000000; stroke-width: 0.8"/>
      </g>
     </g>
     <g id="text_15">
      <!-- 800 -->
      <g transform="translate(31.5125 178.402961) scale(0.1 -0.1)">
       <use xlink:href="#DejaVuSans-38"/>
       <use xlink:href="#DejaVuSans-30" x="63.623047"/>
       <use xlink:href="#DejaVuSans-30" x="127.246094"/>
      </g>
     </g>
    </g>
    <g id="ytick_6">
     <g id="line2d_15">
      <g>
       <use xlink:href="#m2fc30c3c4c" x="57.6" y="144.306936" style="stroke: #000000; stroke-width: 0.8"/>
      </g>
     </g>
     <g id="text_16">
      <!-- 1000 -->
      <g transform="translate(25.15 148.106154) scale(0.1 -0.1)">
       <use xlink:href="#DejaVuSans-31"/>
       <use xlink:href="#DejaVuSans-30" x="63.623047"/>
       <use xlink:href="#DejaVuSans-30" x="127.246094"/>
       <use xlink:href="#DejaVuSans-30" x="190.869141"/>
      </g>
     </g>
    </g>
    <g id="ytick_7">
     <g id="line2d_16">
      <g>
       <use xlink:href="#m2fc30c3c4c" x="57.6" y="114.010129" style="stroke: #000000; stroke-width: 0.8"/>
      </g>
     </g>
     <g id="text_17">
      <!-- 1200 -->
      <g transform="translate(25.15 117.809348) scale(0.1 -0.1)">
       <use xlink:href="#DejaVuSans-31"/>
       <use xlink:href="#DejaVuSans-32" x="63.623047"/>
       <use xlink:href="#DejaVuSans-30" x="127.246094"/>
       <use xlink:href="#DejaVuSans-30" x="190.869141"/>
      </g>
     </g>
    </g>
    <g id="ytick_8">
     <g id="line2d_17">
      <g>
       <use xlink:href="#m2fc30c3c4c" x="57.6" y="83.713322" style="stroke: #000000; stroke-width: 0.8"/>
      </g>
     </g>
     <g id="text_18">
      <!-- 1400 -->
      <g transform="translate(25.15 87.512541) scale(0.1 -0.1)">
       <use xlink:href="#DejaVuSans-31"/>
       <use xlink:href="#DejaVuSans-34" x="63.623047"/>
       <use xlink:href="#DejaVuSans-30" x="127.246094"/>
       <use xlink:href="#DejaVuSans-30" x="190.869141"/>
      </g>
     </g>
    </g>
    <g id="ytick_9">
     <g id="line2d_18">
      <g>
       <use xlink:href="#m2fc30c3c4c" x="57.6" y="53.416516" style="stroke: #000000; stroke-width: 0.8"/>
      </g>
     </g>
     <g id="text_19">
      <!-- 1600 -->
      <g transform="translate(25.15 57.215735) scale(0.1 -0.1)">
       <use xlink:href="#DejaVuSans-31"/>
       <use xlink:href="#DejaVuSans-36" x="63.623047"/>
       <use xlink:href="#DejaVuSans-30" x="127.246094"/>
       <use xlink:href="#DejaVuSans-30" x="190.869141"/>
      </g>
     </g>
    </g>
   </g>
   <g id="line2d_19">
    <path d="M 73.832727 53.568 
L 164.995886 121.584331 
L 165.198922 121.584331 
L 190.984493 140.822803 
L 191.187529 140.822803 
L 191.999673 141.428739 
L 192.202709 141.428739 
L 202.963616 149.457393 
L 203.166652 149.457393 
L 203.77576 149.911845 
L 203.978796 149.911845 
L 206.618264 151.881137 
L 206.8213 151.881137 
L 216.363991 159.000887 
L 216.567027 159.000887 
L 225.500611 165.666184 
L 225.703647 165.666184 
L 230.170438 168.998833 
L 230.373474 168.998833 
L 232.60687 170.665157 
L 232.809906 170.665157 
L 235.855446 172.937418 
L 236.058482 172.937418 
L 244.78903 179.451231 
L 244.992065 179.451231 
L 252.910469 185.359108 
L 253.113505 185.359108 
L 253.316541 185.510592 
L 253.519577 185.510592 
L 257.783333 188.691757 
L 257.986369 188.691757 
L 260.422801 190.509565 
L 260.625837 190.509565 
L 261.844053 191.41847 
L 262.047089 191.41847 
L 263.062268 192.17589 
L 263.265304 192.17589 
L 265.701736 193.993698 
L 265.904772 193.993698 
L 268.138168 195.660023 
L 268.341204 195.660023 
L 270.980672 197.629315 
L 271.183708 197.629315 
L 271.386744 197.780799 
L 271.792816 197.780799 
L 274.229248 199.598607 
L 274.432284 199.598607 
L 275.041392 200.053059 
L 275.244428 200.053059 
L 282.147651 205.203517 
L 282.350687 205.203517 
L 282.959795 205.657969 
L 283.162831 205.657969 
L 284.584083 206.718357 
L 284.787119 206.718357 
L 286.005335 207.627261 
L 286.208371 207.627261 
L 289.659983 210.20249 
L 289.863019 210.20249 
L 296.766243 215.352947 
L 296.969279 215.352947 
L 305.49679 221.715276 
L 305.699826 221.715276 
L 306.918042 222.62418 
L 307.121078 222.62418 
L 308.136258 223.381601 
L 308.745366 223.381601 
L 308.948402 223.533085 
L 309.55751 223.533085 
L 310.978762 224.593473 
L 311.181798 224.593473 
L 311.993942 225.199409 
L 312.196978 225.199409 
L 312.400014 225.350893 
L 312.60305 225.350893 
L 315.039481 227.168701 
L 315.242517 227.168701 
L 315.445553 227.320185 
L 315.648589 227.320185 
L 316.866805 228.22909 
L 317.272877 228.22909 
L 318.491093 229.137994 
L 318.694129 229.137994 
L 318.897165 229.289478 
L 319.506273 229.289478 
L 320.927525 230.349866 
L 321.130561 230.349866 
L 321.333597 230.50135 
L 321.536633 230.50135 
L 322.348777 231.107286 
L 322.754849 231.107286 
L 326.612533 233.985483 
L 326.815569 233.985483 
L 327.830749 234.742903 
L 328.033785 234.742903 
L 328.642893 235.197355 
L 329.048965 235.197355 
L 329.861109 235.803291 
L 330.064145 235.803291 
L 330.673253 236.257743 
L 330.876289 236.257743 
L 331.079325 236.409227 
L 331.282361 236.409227 
L 332.297541 237.166647 
L 332.500576 237.166647 
L 334.124864 238.37852 
L 334.3279 238.37852 
L 334.937008 238.832972 
L 335.34308 238.832972 
L 335.952188 239.287424 
L 336.155224 239.287424 
L 338.794692 241.256716 
L 338.997728 241.256716 
L 339.200764 241.4082 
L 339.606836 241.4082 
L 340.012908 241.711168 
L 340.215944 241.711168 
L 340.41898 241.862652 
L 340.622016 241.862652 
L 341.231124 242.317105 
L 341.43416 242.317105 
L 341.840232 242.620073 
L 342.043268 242.620073 
L 342.652376 243.074525 
L 343.058448 243.074525 
L 343.261484 243.226009 
L 343.46452 243.226009 
L 345.900952 245.043817 
L 346.103988 245.043817 
L 346.713096 245.498269 
L 346.916132 245.498269 
L 347.322204 245.801237 
L 347.52524 245.801237 
L 348.743456 246.710142 
L 349.149528 246.710142 
L 351.179887 248.224982 
L 351.382923 248.224982 
L 352.601139 249.133886 
L 352.804175 249.133886 
L 354.225427 250.194274 
L 354.428463 250.194274 
L 354.631499 250.345758 
L 354.834535 250.345758 
L 355.240607 250.648726 
L 355.443643 250.648726 
L 356.661859 251.557631 
L 356.864895 251.557631 
L 357.067931 251.709115 
L 357.270967 251.709115 
L 357.474003 251.860599 
L 357.880075 251.860599 
L 358.286147 252.163567 
L 358.692219 252.163567 
L 358.895255 252.315051 
L 359.098291 252.315051 
L 359.301327 252.466535 
L 359.504363 252.466535 
L 360.316507 253.072471 
L 360.519543 253.072471 
L 361.128651 253.526923 
L 361.331687 253.526923 
L 361.940795 253.981375 
L 362.143831 253.981375 
L 362.549903 254.284343 
L 362.752939 254.284343 
L 363.768119 255.041763 
L 363.971155 255.041763 
L 364.377227 255.344731 
L 364.580263 255.344731 
L 364.783299 255.496215 
L 364.986335 255.496215 
L 365.189371 255.647699 
L 365.392407 255.647699 
L 365.595443 255.799183 
L 365.798479 255.799183 
L 366.610623 256.40512 
L 366.813659 256.40512 
L 367.422767 256.859572 
L 367.625802 256.859572 
L 367.828838 257.011056 
L 368.640982 257.011056 
L 369.25009 257.465508 
L 369.453126 257.465508 
L 370.062234 257.91996 
L 370.26527 257.91996 
L 370.671342 258.222928 
L 371.077414 258.222928 
L 371.686522 258.67738 
L 371.889558 258.67738 
L 373.513846 259.889252 
L 373.919918 259.889252 
L 374.732062 260.495188 
L 374.935098 260.495188 
L 375.34117 260.798157 
L 375.747242 260.798157 
L 376.762422 261.555577 
L 376.965458 261.555577 
L 377.168494 261.707061 
L 377.574566 261.707061 
L 377.980638 262.010029 
L 378.38671 262.010029 
L 378.589746 262.161513 
L 379.198854 262.161513 
L 380.010998 262.767449 
L 380.214034 262.767449 
L 380.823142 263.221901 
L 381.026178 263.221901 
L 381.229214 263.373385 
L 381.43225 263.373385 
L 382.041358 263.827837 
L 382.244394 263.827837 
L 383.056538 264.433773 
L 383.259574 264.433773 
L 383.665646 264.736741 
L 383.868682 264.736741 
L 384.071718 264.888225 
L 384.883862 264.888225 
L 385.086897 265.039709 
L 385.289933 265.039709 
L 385.492969 265.191193 
L 385.899041 265.191193 
L 386.305113 265.494162 
L 386.711185 265.494162 
L 387.117257 265.79713 
L 387.320293 265.79713 
L 388.132437 266.403066 
L 388.335473 266.403066 
L 388.538509 266.55455 
L 388.741545 266.55455 
L 388.944581 266.706034 
L 389.553689 266.706034 
L 389.756725 266.857518 
L 390.162797 266.857518 
L 390.365833 267.009002 
L 390.568869 267.009002 
L 391.177977 267.463454 
L 391.381013 267.463454 
L 393.208337 268.82681 
L 393.411373 268.82681 
L 393.614409 268.978294 
L 394.223517 268.978294 
L 394.426553 269.129778 
L 395.238697 269.129778 
L 395.441733 269.281262 
L 395.644769 269.281262 
L 395.847805 269.432746 
L 396.050841 269.432746 
L 396.253877 269.58423 
L 396.456913 269.58423 
L 396.862985 269.887198 
L 397.472093 269.887198 
L 398.487273 270.644619 
L 398.487273 270.644619 
" clip-path="url(#p2384f5870f)" style="fill: none; stroke: #0000ff; stroke-width: 1.5; stroke-linecap: square"/>
   </g>
   <g id="line2d_20">
    <path d="M 73.832727 295.488 
L 79.923807 295.488 
L 80.126843 295.336516 
L 85.811851 295.336516 
L 86.014887 295.185032 
L 95.151506 295.185032 
L 95.354542 295.033548 
L 128.449408 295.033548 
L 128.652444 294.882064 
L 132.713164 294.882064 
L 132.9162 294.73058 
L 150.783367 294.73058 
L 150.986403 294.579096 
L 177.381081 294.579096 
L 177.584117 293.518708 
L 183.675197 293.518708 
L 183.878233 292.761287 
L 188.751097 292.761287 
L 188.954133 292.609803 
L 200.73022 292.609803 
L 200.933256 292.155351 
L 201.136292 292.003867 
L 229.56133 292.003867 
L 229.764366 290.943479 
L 239.71313 290.943479 
L 239.916166 290.791995 
L 240.525274 290.791995 
L 240.72831 290.640511 
L 252.504397 290.640511 
L 252.707433 289.428639 
L 253.925649 289.428639 
L 254.128685 286.550442 
L 255.346901 286.550442 
L 255.549937 286.398958 
L 256.971189 286.398958 
L 257.174225 285.641538 
L 266.310844 285.641538 
L 266.51388 285.490054 
L 268.54424 285.490054 
L 268.747276 285.33857 
L 280.320327 285.33857 
L 280.523363 284.732634 
L 281.335507 284.732634 
L 281.538543 284.58115 
L 283.162831 284.58115 
L 283.365867 284.429666 
L 291.081235 284.429666 
L 291.284271 283.823729 
L 300.42089 283.823729 
L 300.623926 283.672245 
L 312.806086 283.672245 
L 313.009122 283.520761 
L 313.212158 283.520761 
L 313.415194 283.369277 
L 314.227338 283.369277 
L 314.430374 283.066309 
L 320.521453 283.066309 
L 320.724489 282.914825 
L 321.739669 282.914825 
L 321.942705 275.643592 
L 324.988245 275.643592 
L 325.191281 275.492108 
L 326.206461 275.492108 
L 326.409497 275.18914 
L 333.31272 275.18914 
L 333.515756 275.037656 
L 333.718792 274.583204 
L 333.921828 274.583204 
L 334.124864 273.522815 
L 335.34308 273.522815 
L 335.546116 273.219847 
L 341.637196 273.219847 
L 341.840232 272.916879 
L 343.870592 272.916879 
L 344.073628 272.159459 
L 345.49488 272.159459 
L 345.697916 266.706034 
L 347.728276 266.706034 
L 347.931312 264.736741 
L 348.54042 264.736741 
L 348.743456 262.615965 
L 350.164707 262.615965 
L 350.367743 262.161513 
L 353.819355 262.161513 
L 354.022391 261.101125 
L 357.270967 261.101125 
L 357.474003 260.949641 
L 359.910435 260.949641 
L 360.113471 260.798157 
L 360.316507 260.495188 
L 360.722579 260.495188 
L 360.925615 260.343704 
L 361.331687 260.343704 
L 361.737759 260.040736 
L 363.565083 260.040736 
L 363.768119 259.889252 
L 364.580263 259.889252 
L 364.783299 248.982402 
L 366.001515 248.982402 
L 366.204551 248.52795 
L 368.640982 248.52795 
L 368.844018 248.376466 
L 369.859198 248.376466 
L 370.062234 246.255689 
L 371.077414 246.255689 
L 371.28045 246.104205 
L 372.29563 246.104205 
L 372.498666 245.952721 
L 372.701702 230.804318 
L 372.904738 230.50135 
L 373.919918 230.50135 
L 374.122954 228.22909 
L 375.950278 228.22909 
L 376.153314 219.140048 
L 376.35635 218.83708 
L 379.807962 218.83708 
L 380.010998 218.685595 
L 380.41707 218.685595 
L 380.620106 200.658996 
L 380.823142 200.507512 
L 381.026178 200.507512 
L 381.229214 199.598607 
L 381.43225 199.598607 
L 381.635286 199.295639 
L 382.44743 199.295639 
L 382.853502 198.538219 
L 383.46261 198.538219 
L 383.665646 148.094036 
L 385.899041 148.094036 
L 386.102077 147.4881 
L 386.711185 147.4881 
L 386.914221 147.336616 
L 387.117257 146.427712 
L 387.726365 146.427712 
L 388.132437 146.124744 
L 388.335473 146.124744 
L 388.538509 145.670292 
L 390.162797 145.670292 
L 390.365833 145.064356 
L 390.568869 145.064356 
L 390.771905 143.398031 
L 390.974941 143.398031 
L 391.177977 143.246547 
L 391.381013 143.246547 
L 391.584049 143.095063 
L 391.787085 143.095063 
L 391.990121 142.186159 
L 392.193157 142.034675 
L 392.396193 142.034675 
L 392.802265 141.580223 
L 393.005301 141.428739 
L 393.208337 141.125771 
L 394.223517 141.125771 
L 394.426553 140.822803 
L 395.238697 140.822803 
L 395.441733 140.671319 
L 396.050841 140.671319 
L 396.253877 140.519835 
L 396.659949 140.519835 
L 396.862985 139.459446 
L 398.081201 139.459446 
L 398.284237 139.307962 
L 398.487273 128.401112 
L 398.487273 128.401112 
" clip-path="url(#p2384f5870f)" style="fill: none; stroke: #008000; stroke-width: 1.5; stroke-linecap: square"/>
   </g>
   <g id="patch_3">
    <path d="M 57.6 307.584 
L 57.6 41.472 
" style="fill: none; stroke: #000000; stroke-width: 0.8; stroke-linejoin: miter; stroke-linecap: square"/>
   </g>
   <g id="patch_4">
    <path d="M 414.72 307.584 
L 414.72 41.472 
" style="fill: none; stroke: #000000; stroke-width: 0.8; stroke-linejoin: miter; stroke-linecap: square"/>
   </g>
   <g id="patch_5">
    <path d="M 57.6 307.584 
L 414.72 307.584 
" style="fill: none; stroke: #000000; stroke-width: 0.8; stroke-linejoin: miter; stroke-linecap: square"/>
   </g>
   <g id="patch_6">
    <path d="M 57.6 41.472 
L 414.72 41.472 
" style="fill: none; stroke: #000000; stroke-width: 0.8; stroke-linejoin: miter; stroke-linecap: square"/>
   </g>
   <g id="text_20">
    <!-- test -->
    <g transform="translate(224.638125 35.472) scale(0.12 -0.12)">
     <defs>
      <path id="DejaVuSans-74" d="M 1172 4494 
L 1172 3500 
L 2356 3500 
L 2356 3053 
L 1172 3053 
L 1172 1153 
Q 1172 725 1289 603 
Q 1406 481 1766 481 
L 2356 481 
L 2356 0 
L 1766 0 
Q 1100 0 847 248 
Q 594 497 594 1153 
L 594 3053 
L 172 3053 
L 172 3500 
L 594 3500 
L 594 4494 
L 1172 4494 
z
" transform="scale(0.015625)"/>
     </defs>
     <use xlink:href="#DejaVuSans-74"/>
     <use xlink:href="#DejaVuSans-65" x="39.208984"/>
     <use xlink:href="#DejaVuSans-73" x="100.732422"/>
     <use xlink:href="#DejaVuSans-74" x="152.832031"/>
    </g>
   </g>
   <g id="legend_1">
    <g id="patch_7">
     <path d="M 64.6 78.82825 
L 218.748437 78.82825 
Q 220.748437 78.82825 220.748437 76.82825 
L 220.748437 48.472 
Q 220.748437 46.472 218.748437 46.472 
L 64.6 46.472 
Q 62.6 46.472 62.6 48.472 
L 62.6 76.82825 
Q 62.6 78.82825 64.6 78.82825 
z
" style="fill: #ffffff; opacity: 0.8; stroke: #cccccc; stroke-linejoin: miter"/>
    </g>
    <g id="line2d_21">
     <path d="M 66.6 54.570437 
L 76.6 54.570437 
L 86.6 54.570437 
" style="fill: none; stroke: #0000ff; stroke-width: 1.5; stroke-linecap: square"/>
    </g>
    <g id="text_21">
     <!-- Number of clusters -->
     <g transform="translate(94.6 58.070437) scale(0.1 -0.1)">
      <defs>
       <path id="DejaVuSans-63" d="M 3122 3366 
L 3122 2828 
Q 2878 2963 2633 3030 
Q 2388 3097 2138 3097 
Q 1578 3097 1268 2742 
Q 959 2388 959 1747 
Q 959 1106 1268 751 
Q 1578 397 2138 397 
Q 2388 397 2633 464 
Q 2878 531 3122 666 
L 3122 134 
Q 2881 22 2623 -34 
Q 2366 -91 2075 -91 
Q 1284 -91 818 406 
Q 353 903 353 1747 
Q 353 2603 823 3093 
Q 1294 3584 2113 3584 
Q 2378 3584 2631 3529 
Q 2884 3475 3122 3366 
z
" transform="scale(0.015625)"/>
       <path id="DejaVuSans-6c" d="M 603 4863 
L 1178 4863 
L 1178 0 
L 603 0 
L 603 4863 
z
" transform="scale(0.015625)"/>
      </defs>
      <use xlink:href="#DejaVuSans-4e"/>
      <use xlink:href="#DejaVuSans-75" x="74.804688"/>
      <use xlink:href="#DejaVuSans-6d" x="138.183594"/>
      <use xlink:href="#DejaVuSans-62" x="235.595703"/>
      <use xlink:href="#DejaVuSans-65" x="299.072266"/>
      <use xlink:href="#DejaVuSans-72" x="360.595703"/>
      <use xlink:href="#DejaVuSans-20" x="401.708984"/>
      <use xlink:href="#DejaVuSans-6f" x="433.496094"/>
      <use xlink:href="#DejaVuSans-66" x="494.677734"/>
      <use xlink:href="#DejaVuSans-20" x="529.882812"/>
      <use xlink:href="#DejaVuSans-63" x="561.669922"/>
      <use xlink:href="#DejaVuSans-6c" x="616.650391"/>
      <use xlink:href="#DejaVuSans-75" x="644.433594"/>
      <use xlink:href="#DejaVuSans-73" x="707.8125"/>
      <use xlink:href="#DejaVuSans-74" x="759.912109"/>
      <use xlink:href="#DejaVuSans-65" x="799.121094"/>
      <use xlink:href="#DejaVuSans-72" x="860.644531"/>
      <use xlink:href="#DejaVuSans-73" x="901.757812"/>
     </g>
    </g>
    <g id="line2d_22">
     <path d="M 66.6 69.248562 
L 76.6 69.248562 
L 86.6 69.248562 
" style="fill: none; stroke: #008000; stroke-width: 1.5; stroke-linecap: square"/>
    </g>
    <g id="text_22">
     <!-- Length of largest cluster -->
     <g transform="translate(94.6 72.748562) scale(0.1 -0.1)">
      <defs>
       <path id="DejaVuSans-4c" d="M 628 4666 
L 1259 4666 
L 1259 531 
L 3531 531 
L 3531 0 
L 628 0 
L 628 4666 
z
" transform="scale(0.015625)"/>
       <path id="DejaVuSans-6e" d="M 3513 2113 
L 3513 0 
L 2938 0 
L 2938 2094 
Q 2938 2591 2744 2837 
Q 2550 3084 2163 3084 
Q 1697 3084 1428 2787 
Q 1159 2491 1159 1978 
L 1159 0 
L 581 0 
L 581 3500 
L 1159 3500 
L 1159 2956 
Q 1366 3272 1645 3428 
Q 1925 3584 2291 3584 
Q 2894 3584 3203 3211 
Q 3513 2838 3513 2113 
z
" transform="scale(0.015625)"/>
       <path id="DejaVuSans-68" d="M 3513 2113 
L 3513 0 
L 2938 0 
L 2938 2094 
Q 2938 2591 2744 2837 
Q 2550 3084 2163 3084 
Q 1697 3084 1428 2787 
Q 1159 2491 1159 1978 
L 1159 0 
L 581 0 
L 581 4863 
L 1159 4863 
L 1159 2956 
Q 1366 3272 1645 3428 
Q 1925 3584 2291 3584 
Q 2894 3584 3203 3211 
Q 3513 2838 3513 2113 
z
" transform="scale(0.015625)"/>
       <path id="DejaVuSans-61" d="M 2194 1759 
Q 1497 1759 1228 1600 
Q 959 1441 959 1056 
Q 959 750 1161 570 
Q 1363 391 1709 391 
Q 2188 391 2477 730 
Q 2766 1069 2766 1631 
L 2766 1759 
L 2194 1759 
z
M 3341 1997 
L 3341 0 
L 2766 0 
L 2766 531 
Q 2569 213 2275 61 
Q 1981 -91 1556 -91 
Q 1019 -91 701 211 
Q 384 513 384 1019 
Q 384 1609 779 1909 
Q 1175 2209 1959 2209 
L 2766 2209 
L 2766 2266 
Q 2766 2663 2505 2880 
Q 2244 3097 1772 3097 
Q 1472 3097 1187 3025 
Q 903 2953 641 2809 
L 641 3341 
Q 956 3463 1253 3523 
Q 1550 3584 1831 3584 
Q 2591 3584 2966 3190 
Q 3341 2797 3341 1997 
z
" transform="scale(0.015625)"/>
      </defs>
      <use xlink:href="#DejaVuSans-4c"/>
      <use xlink:href="#DejaVuSans-65" x="53.962891"/>
      <use xlink:href="#DejaVuSans-6e" x="115.486328"/>
      <use xlink:href="#DejaVuSans-67" x="178.865234"/>
      <use xlink:href="#DejaVuSans-74" x="242.341797"/>
      <use xlink:href="#DejaVuSans-68" x="281.550781"/>
      <use xlink:href="#DejaVuSans-20" x="344.929688"/>
      <use xlink:href="#DejaVuSans-6f" x="376.716797"/>
      <use xlink:href="#DejaVuSans-66" x="437.898438"/>
      <use xlink:href="#DejaVuSans-20" x="473.103516"/>
      <use xlink:href="#DejaVuSans-6c" x="504.890625"/>
      <use xlink:href="#DejaVuSans-61" x="532.673828"/>
      <use xlink:href="#DejaVuSans-72" x="593.953125"/>
      <use xlink:href="#DejaVuSans-67" x="633.316406"/>
      <use xlink:href="#DejaVuSans-65" x="696.792969"/>
      <use xlink:href="#DejaVuSans-73" x="758.316406"/>
      <use xlink:href="#DejaVuSans-74" x="810.416016"/>
      <use xlink:href="#DejaVuSans-20" x="849.625"/>
      <use xlink:href="#DejaVuSans-63" x="881.412109"/>
      <use xlink:href="#DejaVuSans-6c" x="936.392578"/>
      <use xlink:href="#DejaVuSans-75" x="964.175781"/>
      <use xlink:href="#DejaVuSans-73" x="1027.554688"/>
      <use xlink:href="#DejaVuSans-74" x="1079.654297"/>
      <use xlink:href="#DejaVuSans-65" x="1118.863281"/>
      <use xlink:href="#DejaVuSans-72" x="1180.386719"/>
     </g>
    </g>
   </g>
  </g>
 </g>
 <defs>
  <clipPath id="p2384f5870f">
   <rect x="57.6" y="41.472" width="357.12" height="266.112"/>
  </clipPath>
 </defs>
</svg>
